<mxfile host="app.diagrams.net" modified="2023-10-23T17:24:39.847Z" agent="Mozilla/5.0 (Windows NT 10.0; Win64; x64) AppleWebKit/537.36 (KHTML, like Gecko) Chrome/118.0.0.0 Safari/537.36" etag="qpi7cD0_O_td4U6hM5M9" version="22.0.6" type="device">
  <diagram name="Page-1" id="EbAEV_jTW3WetPSAjjS8">
    <mxGraphModel dx="880" dy="490" grid="1" gridSize="10" guides="1" tooltips="1" connect="1" arrows="1" fold="1" page="1" pageScale="1" pageWidth="850" pageHeight="1100" background="#FFFFFF" math="0" shadow="0">
      <root>
        <mxCell id="0" />
        <mxCell id="1" parent="0" />
        <mxCell id="UfVapmBmuUFkcLh0fFch-445" value="" style="edgeStyle=orthogonalEdgeStyle;rounded=0;orthogonalLoop=1;jettySize=auto;html=1;strokeColor=#23445D;" edge="1" parent="1" source="UfVapmBmuUFkcLh0fFch-446" target="UfVapmBmuUFkcLh0fFch-450">
          <mxGeometry relative="1" as="geometry" />
        </mxCell>
        <mxCell id="UfVapmBmuUFkcLh0fFch-446" value="Add Course" style="rounded=1;whiteSpace=wrap;html=1;fontSize=15;glass=0;strokeWidth=1;shadow=0;labelBackgroundColor=none;fillColor=#182E3E;strokeColor=#FFFFFF;fontColor=#FFFFFF;fontStyle=1" vertex="1" parent="1">
          <mxGeometry x="337" y="110" width="149" height="48" as="geometry" />
        </mxCell>
        <mxCell id="UfVapmBmuUFkcLh0fFch-447" value="" style="edgeStyle=orthogonalEdgeStyle;rounded=0;orthogonalLoop=1;jettySize=auto;html=1;strokeColor=#23445D;" edge="1" parent="1">
          <mxGeometry relative="1" as="geometry">
            <mxPoint x="452" y="260" as="sourcePoint" />
            <mxPoint x="550" y="260" as="targetPoint" />
          </mxGeometry>
        </mxCell>
        <mxCell id="UfVapmBmuUFkcLh0fFch-448" value="Invalid User" style="rounded=1;whiteSpace=wrap;html=1;strokeColor=#FFFFFF;fontColor=#FFFFFF;fillColor=#182E3E;" vertex="1" parent="1">
          <mxGeometry x="550" y="240" width="120" height="40" as="geometry" />
        </mxCell>
        <mxCell id="UfVapmBmuUFkcLh0fFch-449" value="" style="edgeStyle=orthogonalEdgeStyle;rounded=0;orthogonalLoop=1;jettySize=auto;html=1;strokeColor=#23445D;" edge="1" parent="1" source="UfVapmBmuUFkcLh0fFch-450" target="UfVapmBmuUFkcLh0fFch-454">
          <mxGeometry relative="1" as="geometry" />
        </mxCell>
        <mxCell id="UfVapmBmuUFkcLh0fFch-450" value="is &lt;br&gt;admin?" style="rhombus;whiteSpace=wrap;html=1;strokeColor=#FFFFFF;fontColor=#FFFFFF;fillColor=#182E3E;" vertex="1" parent="1">
          <mxGeometry x="372" y="220" width="80" height="80" as="geometry" />
        </mxCell>
        <mxCell id="UfVapmBmuUFkcLh0fFch-451" value="No" style="text;html=1;strokeColor=none;fillColor=none;align=center;verticalAlign=middle;whiteSpace=wrap;rounded=0;fontColor=default;" vertex="1" parent="1">
          <mxGeometry x="460" y="240" width="60" height="30" as="geometry" />
        </mxCell>
        <mxCell id="UfVapmBmuUFkcLh0fFch-452" value="" style="edgeStyle=orthogonalEdgeStyle;rounded=0;orthogonalLoop=1;jettySize=auto;html=1;strokeColor=#23445D;" edge="1" parent="1" source="UfVapmBmuUFkcLh0fFch-454" target="UfVapmBmuUFkcLh0fFch-456">
          <mxGeometry relative="1" as="geometry" />
        </mxCell>
        <mxCell id="UfVapmBmuUFkcLh0fFch-453" value="" style="edgeStyle=orthogonalEdgeStyle;rounded=0;orthogonalLoop=1;jettySize=auto;html=1;strokeColor=#23445D;" edge="1" parent="1" source="UfVapmBmuUFkcLh0fFch-454" target="UfVapmBmuUFkcLh0fFch-460">
          <mxGeometry relative="1" as="geometry" />
        </mxCell>
        <mxCell id="UfVapmBmuUFkcLh0fFch-454" value="all &lt;br&gt;required input given?" style="rhombus;whiteSpace=wrap;html=1;strokeColor=#FFFFFF;fontColor=#FFFFFF;fillColor=#182E3E;" vertex="1" parent="1">
          <mxGeometry x="211" y="210" width="98" height="100" as="geometry" />
        </mxCell>
        <mxCell id="UfVapmBmuUFkcLh0fFch-455" value="Yes" style="text;html=1;strokeColor=none;fillColor=none;align=center;verticalAlign=middle;whiteSpace=wrap;rounded=0;fontColor=default;" vertex="1" parent="1">
          <mxGeometry x="309" y="235" width="60" height="30" as="geometry" />
        </mxCell>
        <mxCell id="UfVapmBmuUFkcLh0fFch-456" value="give appropriate response asking input" style="rounded=1;whiteSpace=wrap;html=1;fillColor=#182E3E;strokeColor=#FFFFFF;fontColor=#FFFFFF;" vertex="1" parent="1">
          <mxGeometry x="10" y="233" width="132" height="55" as="geometry" />
        </mxCell>
        <mxCell id="UfVapmBmuUFkcLh0fFch-457" value="No" style="text;html=1;strokeColor=none;fillColor=none;align=center;verticalAlign=middle;whiteSpace=wrap;rounded=0;fontColor=default;" vertex="1" parent="1">
          <mxGeometry x="150" y="238" width="60" height="30" as="geometry" />
        </mxCell>
        <mxCell id="UfVapmBmuUFkcLh0fFch-458" value="" style="edgeStyle=orthogonalEdgeStyle;rounded=0;orthogonalLoop=1;jettySize=auto;html=1;strokeColor=#23445D;" edge="1" parent="1" source="UfVapmBmuUFkcLh0fFch-460" target="UfVapmBmuUFkcLh0fFch-462">
          <mxGeometry relative="1" as="geometry" />
        </mxCell>
        <mxCell id="UfVapmBmuUFkcLh0fFch-459" value="" style="edgeStyle=orthogonalEdgeStyle;rounded=0;orthogonalLoop=1;jettySize=auto;html=1;strokeColor=#23445D;" edge="1" parent="1" source="UfVapmBmuUFkcLh0fFch-460" target="UfVapmBmuUFkcLh0fFch-464">
          <mxGeometry relative="1" as="geometry" />
        </mxCell>
        <mxCell id="UfVapmBmuUFkcLh0fFch-460" value="are &lt;br&gt;all data &lt;br&gt;valid?" style="rhombus;whiteSpace=wrap;html=1;fillColor=#182E3E;strokeColor=#FFFFFF;fontColor=#FFFFFF;" vertex="1" parent="1">
          <mxGeometry x="220" y="360" width="80" height="80" as="geometry" />
        </mxCell>
        <mxCell id="UfVapmBmuUFkcLh0fFch-461" value="Yes" style="text;html=1;strokeColor=none;fillColor=none;align=center;verticalAlign=middle;whiteSpace=wrap;rounded=0;fontColor=default;" vertex="1" parent="1">
          <mxGeometry x="249" y="320" width="60" height="30" as="geometry" />
        </mxCell>
        <mxCell id="UfVapmBmuUFkcLh0fFch-462" value="Give appropriate response" style="rounded=1;whiteSpace=wrap;html=1;fillColor=#182E3E;strokeColor=#FFFFFF;fontColor=#FFFFFF;" vertex="1" parent="1">
          <mxGeometry x="40" y="375" width="120" height="50" as="geometry" />
        </mxCell>
        <mxCell id="UfVapmBmuUFkcLh0fFch-463" value="No" style="text;html=1;strokeColor=none;fillColor=none;align=center;verticalAlign=middle;whiteSpace=wrap;rounded=0;fontColor=default;" vertex="1" parent="1">
          <mxGeometry x="167" y="377" width="60" height="30" as="geometry" />
        </mxCell>
        <mxCell id="UfVapmBmuUFkcLh0fFch-464" value="Course Added" style="rounded=1;whiteSpace=wrap;html=1;fillColor=#182E3E;strokeColor=#FFFFFF;fontColor=#FFFFFF;fontSize=15;fontStyle=1" vertex="1" parent="1">
          <mxGeometry x="175" y="526" width="170" height="60" as="geometry" />
        </mxCell>
        <mxCell id="UfVapmBmuUFkcLh0fFch-465" value="Yes" style="text;html=1;strokeColor=none;fillColor=none;align=center;verticalAlign=middle;whiteSpace=wrap;rounded=0;fontColor=default;" vertex="1" parent="1">
          <mxGeometry x="253" y="459" width="60" height="30" as="geometry" />
        </mxCell>
      </root>
    </mxGraphModel>
  </diagram>
</mxfile>
